<svg xmlns="http://www.w3.org/2000/svg" viewBox="0 0 670 536" width="670" height="536">
	<defs>
		<linearGradient id="grd1" gradientUnits="userSpaceOnUse"  x1="59.267" y1="253.351" x2="89.492" y2="201">
			<stop offset="0" stop-color="#000000"  />
			<stop offset="1" stop-color="#000000"  />
		</linearGradient>
	</defs>
	<style>
		tspan { white-space:pre }
		.shp0 { fill: #000000 } 
		.shp1 { fill: #000000;stroke: url(#grd1);stroke-width: 17.6 } 
	</style>
	<path id="Layer" class="shp0" d="M670,327.86v72.77c0,8.04 -6.76,14.55 -15.1,14.55h-45.3c0,48.23 -40.56,87.32 -90.6,87.32c-50.04,0 -90.6,-39.09 -90.6,-87.32h-120.8c0,48.23 -40.56,87.32 -90.6,87.32c-50.04,0 -90.6,-39.09 -90.6,-87.32h-45.3c-8.34,0 -15.1,-6.51 -15.1,-14.55v-101.87c0,-27.1 19.29,-49.66 45.3,-56.16l45.22,-111c9.17,-22.1 31.38,-36.59 56.08,-36.59l201.88,0c4.52,0 9.02,0.49 13.42,1.46c4.4,0.97 8.68,2.41 12.75,4.29c4.07,1.89 7.91,4.2 11.44,6.91c3.53,2.71 6.74,5.79 9.56,9.19l102.66,123.69h15.1c50.04,0 90.6,39.09 90.6,87.32zM262.3,415.18c0,-24.08 -20.32,-43.66 -45.3,-43.66c-24.98,0 -45.3,19.58 -45.3,43.66c0,24.08 20.32,43.66 45.3,43.66c24.98,0 45.3,-19.58 45.3,-43.66zM284.95,153.21h-72.36l-36.24,87.32h108.6zM486.95,240.54l-72.48,-87.32h-84.22v87.32zM564.3,415.18c0,-24.08 -20.32,-43.66 -45.3,-43.66c-24.98,0 -45.3,19.58 -45.3,43.66c0,24.08 20.32,43.66 45.3,43.66c24.98,0 45.3,-19.58 45.3,-43.66z" />
	<path id="Shape 1" class="shp1" d="M105,242c0,0 42.51,29.16 -4,-6c-46.51,-35.16 -75,-35 -75,-35c0,0 44.18,15 79,41z" />
</svg>